#!OML:ASF E:/inclinewalkrobotboard/Project1/Captureday1/Session1/subject1.ASF
:FULLY-SPECIFIED
:DEGREES
13
root 0 0 0 1.1055258264448367 -3.7049451614708264 1.8136251472201619
lowerback 11.910286813399393 0.8625720734526829 -0.028752190024775276
upperback -4.225525626544484 1.0970792293091083 -0.5454710710229607
thorax -11.288959462617376 0.5010719387691335 -0.8073608973568509
lowerneck -5.817355500764468 1.475416661472874 4.5676680374346805
upperneck 18.08859953874518 2.93136496426387 -8.331814345718552
head 6.613928787264462 1.065499237653791 -3.222294664215543
rclavicle 1.4550424537375853E-15 -1.2114875606761409E-15
rhumerus 19.414401373225843 14.03212963110471 -48.377474630803455
rradius 71.74076820200054
rwrist 26.665869349913358
rhand -34.616946708749175 -56.25989498679432
rfingers 7.125020000000028
rthumb -7.758940364675961 -86.19100781436909
lclavicle 1.2488296904051795E-15 -1.892679928103787E-15
lhumerus 20.742240810431255 -12.307823668033874 44.86763723196423
lradius 69.75482673716425
lwrist -22.665729136899092
lhand -44.489719041482076 -69.25828396459443
lfingers 7.12502000000002
lthumb -17.316822979937257 -39.98188513758954
rfemur -24.64506152188443 -2.0970367432768517 17.18189525324909
rtibia 53.83660364392198
rfoot -29.09565299020033 -17.029477033875395
rtoes -18.318170494394174
lfemur -26.24535437908164 2.5193151183351654 -18.018314293482575
ltibia 54.19998630451203
lfoot -31.063375749366543 -3.4475103196745915
ltoes -20.155632467431243
14
root 0 0 0 1.106131690468666 -3.704499860473605 1.8135649412082842
lowerback 11.910277271867564 0.8626439265578043 -0.02884579066675319
upperback -4.225839967252423 1.0971431720504392 -0.5455656303142857
thorax -11.289306841614355 0.5011073865589832 -0.807432772394149
lowerneck -5.819296100851086 1.475704291837142 4.5672954333955165
upperneck 18.089666132701357 2.931684560829214 -8.330799129963593
head 6.614596616866555 1.065645051398831 -3.2218774869991202
rclavicle 1.4604728219772687E-15 -1.2194218337681165E-15
rhumerus 19.413116891776447 14.031341347794722 -48.380131588069986
rradius 71.74042566856781
rwrist 26.66458895300706
rhand -34.620963981278265 -56.26423997664536
rfingers 7.125020000000028
rthumb -7.762774843415392 -86.19530536288684
lclavicle 1.2728084171961238E-15 -1.9044337998586726E-15
lhumerus 20.74131051263588 -12.306751311701573 44.86775298093997
lradius 69.75421378304134
lwrist -22.665664236435266
lhand -44.48950081792894 -69.2605201656992
lfingers 7.12502000000002
lthumb -17.31667298721093 -39.98463654414411
rfemur -24.64470651045795 -2.0973252106021616 17.182569688194018
rtibia 53.83758550040947
rfoot -29.09684968397208 -17.03054770091859
rtoes -18.318551584129295
lfemur -26.24774319475389 2.5185275729071117 -18.018589546867382
ltibia 54.20103978809807
lfoot -31.064697127347507 -3.449232457614772
ltoes -20.1505011501028
15
root 0 0 0 1.1057609152175782 -3.7047772856530075 1.813603298379378
lowerback 11.910285635557605 0.8626004089239321 -0.028791500002581433
upperback -4.225651746940182 1.097103951797521 -0.5455083029834259
thorax -11.289100562279824 0.5010858588214483 -0.8073881072006597
lowerneck -5.818132371219061 1.4755393433349187 4.567521623039076
upperneck 18.089036583115977 2.9315043699632346 -8.331414221156031
head 6.614199420474645 1.0655625461617726 -3.22212881467307
rclavicle 1.4470569247490774E-15 -1.2109238919811256E-15
rhumerus 19.41363744404407 14.031241389012306 -48.37747115033953
rradius 71.74035463694396
rwrist 26.666247926811327
rhand -34.6179409231109 -56.2613480359599
rfingers 7.125020000000028
rthumb -7.75990388976083 -86.19250083626824
lclavicle 1.2422796557012185E-15 -1.8915996111267496E-15
lhumerus 20.74217858054329 -12.307325412146742 44.8681851482792
lradius 69.7546748519622
lwrist -22.665649473493396
lhand -44.49014928927747 -69.26049559228
lfingers 7.12502000000002
lthumb -17.317233468511915 -39.983954507780226
rfemur -24.645061998252288 -2.097085815726302 17.181882705427107
rtibia 53.83667590714812
rfoot -29.095674179344254 -17.029565778383198
rtoes -18.318165840889293
lfemur -26.245648016093824 2.5191803448823187 -18.018326311082664
ltibia 54.200115551030386
lfoot -31.063531849836554 -3.4476068474469916
ltoes -20.154686443373535
16
root 0 0 0 1.1055297959367931 -3.704939672694369 1.8136251463200677
lowerback 11.910289575628928 0.862572289516881 -0.02875196220886464
upperback -4.225523603146655 1.0970796261729687 -0.5454710432947838
thorax -11.288958764813739 0.5010721215867141 -0.8073610032773334
lowerneck -5.817360906498349 1.4754138562487205 4.567666294030884
upperneck 18.088596254462963 2.9313605347703664 -8.331812526422821
head 6.613928698759227 1.065497254094777 -3.2222943010672975
rclavicle 1.4532852043241606E-15 -1.2116581249766274E-15
rhumerus 19.414117143122567 14.03180714642991 -48.37750096594313
rradius 71.74058873376879
rwrist 26.665998000709944
rhand -34.61727363695794 -56.26034881405399
rfingers 7.125020000000028
rthumb -7.759259189198174 -86.19146119907882
lclavicle 1.247146328562318E-15 -1.8927727054614557E-15
lhumerus 20.7422632405585 -12.307729752121302 44.867736620717594
lradius 69.75480703011452
lwrist -22.665718968761247
lhand -44.48984238303794 -69.25888366415072
lfingers 7.12502000000002
lthumb -17.31694315043642 -39.98246324762691
rfemur -24.64511935489486 -2.097061499752996 17.181877358963746
rtibia 53.83659039022887
rfoot -29.095681401948447 -17.029525365679312
rtoes -18.31813828974506
lfemur -26.24540043706742 2.519284727804664 -18.018319657490743
ltibia 54.19994983986804
lfoot -31.063399775701317 -3.447507233521269
ltoes -20.155489786221416
17
root 0 0 0 1.1052841349164988 -3.705116811091807 1.8136470271342826
lowerback 11.910290185950823 0.8625426653525309 -0.02870884292398257
upperback -4.225390717980172 1.0970540915551992 -0.5454316606533653
thorax -11.288809602062162 0.5010576279546399 -0.8073331746226602
lowerneck -5.8165384854209305 1.4752828576653922 4.567820938784557
upperneck 18.088129027391332 2.9312112380170383 -8.332235208379508
head 6.613640649868029 1.0654295274715695 -3.2224697261467563
rclavicle 1.4566435479197595E-15 -1.2116820811746285E-15
rhumerus 19.41487809305098 14.032628909433232 -48.37730243116179
rradius 71.74104418849237
rwrist 26.665728888004644
rhand -34.61629069306072 -56.25903569497399
rfingers 7.125020000000028
rthumb -7.758304134172344 -86.1901711924341
lclavicle 1.2500902252437635E-15 -1.8930809945663874E-15
lhumerus 20.742320032146047 -12.308127914147985 44.8673501002331
lradius 69.75495352103873
lwrist -22.66575873709373
lhand -44.489509655311714 -69.25701567617519
lfingers 7.12502000000002
lthumb -17.316619904350027 -39.98063450500285
rfemur -24.645070633983693 -2.0970453793095083 17.18190096890438
rtibia 53.83665396716723
rfoot -29.09571927188142 -17.029466980085417
rtoes -18.318194982820305
lfemur -26.245203651826557 2.5193985107430397 -18.0183115220104
ltibia 54.19998596130314
lfoot -31.063333226500568 -3.4474237376327204
ltoes -20.15616520940298
18
root 0 0 0 1.1051057534739197 -3.7052444254430426 1.813663276588499
lowerback 11.910291956681817 0.8625210406734156 -0.028677300060343747
upperback -4.225292301183826 1.097035527818418 -0.5454027925124044
thorax -11.288699888371806 0.5010470779236866 -0.807312735259714
lowerneck -5.8159379334317745 1.4751855725309078 4.567933584631457
upperneck 18.0877850202315 2.9310998369504926 -8.332544489985212
head 6.6134294285665085 1.0653789960374662 -3.2225982495348244
rclavicle 1.4574466255987589E-15 -1.2113976895543395E-15
rhumerus 19.415248512129093 14.033015205869868 -48.37714385661645
rradius 71.74124974643111
rwrist 26.665624610468903
rhand -34.61574850838796 -56.25831854335449
rfingers 7.125020000000028
rthumb -7.757779145735213 -86.18947609366882
lclavicle 1.2506537942110401E-15 -1.892821398154965E-15
lhumerus 20.742379319828217 -12.3083491594688 44.86713584427116
lradius 69.75504525486784
lwrist -22.665790529402937
lhand -44.48935277928169 -69.25604615978041
lfingers 7.12502000000002
lthumb -17.316466343088656 -39.97966367094941
rfemur -24.645068581194934 -2.097043844325503 17.181909703150332
rtibia 53.836680030677606
rfoot -29.09576413627652 -17.029457498428016
rtoes -18.318205764811005
lfemur -26.245078023191198 2.519470998220969 -18.01830649598296
ltibia 54.199983410370564
lfoot -31.063302826397802 -3.4473508368522054
ltoes -20.15660753805582
19
root 0 0 0 1.1058501321269407 -3.704700305599523 1.8135905485107497
lowerback 11.910280800392918 0.8626097261008214 -0.028795636297169414
upperback -4.22568347452046 1.0971138853555413 -0.5455198709284974
thorax -11.289132792343464 0.5010907276068076 -0.8074004669896003
lowerneck -5.818345946645154 1.4755493159371107 4.5674734400617
upperneck 18.08912023472195 2.931506731086542 -8.331288603936274
head 6.614261933401031 1.0655643976872669 -3.222081014577259
rclavicle 1.4620660521003357E-15 -1.2193666359444043E-15
rhumerus 19.413677204318976 14.031927020722062 -48.379912303154626
rradius 71.74074403685253
rwrist 26.66442706265637
rhand -34.620170974243855 -56.263196406396155
rfingers 7.125020000000028
rthumb -7.762006296002486 -86.19429145303036
lclavicle 1.2740161238793628E-15 -1.904528667630685E-15
lhumerus 20.741403268722095 -12.307100519803019 44.86741996846343
lradius 69.75435954054092
lwrist -22.66570501743431
lhand -44.48925788435857 -69.25903533579807
lfingers 7.12502000000002
lthumb -17.31643648385061 -39.98316253153678
rfemur -24.64471140673397 -2.0973299972078516 17.182579300691565
rtibia 53.837636168510635
rfoot -29.09692347953404 -17.0305346149688
rtoes -18.318574944560257
lfemur -26.247559612044583 2.5186309274303804 -18.018584021178327
ltibia 54.20103834662548
lfoot -31.06464874218822 -3.4491263123256535
ltoes -20.151148628182437
20
root 0 0 0 1.1055475951783245 -3.704929196315562 1.813622674657449
lowerback 11.91028827074793 0.8625744947515189 -0.028753479729288517
upperback -4.225533220564312 1.097081761372616 -0.5454736312569701
thorax -11.288968715784119 0.501073235400943 -0.8073636428287188
lowerneck -5.817412480244434 1.4754219481433042 4.567656476654826
upperneck 18.088622943569785 2.9313696692360134 -8.331785027114645
head 6.6139458309951 1.0655014554862916 -3.222282997023795
rclavicle 1.4482670248034968E-15 -1.2108797218902396E-15
rhumerus 19.414064868201294 14.03168809410457 -48.3773039973559
rradius 71.74059760856669
rwrist 26.666124607836153
rhand -34.61733628809363 -56.260552683413806
rfingers 7.125020000000028
rthumb -7.759317906288906 -86.19172805884926
lclavicle 1.2431980930624796E-15 -1.8916725431238184E-15
lhumerus 20.742248766252295 -12.307591102477504 44.867931737873874
lradius 69.75478546152286
lwrist -22.6656804526134
lhand -44.489964295290434 -69.25936499456454
lfingers 7.12502000000002
lthumb -17.317053343791887 -39.982832133314105
rfemur -24.645065626294592 -2.097089451813293 17.181889989905866
rtibia 53.83671456118224
rfoot -29.095730324662913 -17.02955586682593
rtoes -18.31818378695358
lfemur -26.245508460970573 2.5192590554487992 -18.018322336802512
ltibia 54.2001142942787
lfoot -31.063495104975214 -3.4475262915501035
ltoes -20.15517902822104
